<?xml version="1.0" standalone="no"?><!DOCTYPE svg PUBLIC "-//W3C//DTD SVG 1.1//EN" "http://www.w3.org/Graphics/SVG/1.1/DTD/svg11.dtd"><svg t="1650378729699" class="icon" viewBox="0 0 1024 1024" version="1.1" xmlns="http://www.w3.org/2000/svg" p-id="2003" xmlns:xlink="http://www.w3.org/1999/xlink" width="200" height="200"><defs><style type="text/css">@font-face { font-family: feedback-iconfont; src: url("//at.alicdn.com/t/font_1031158_u69w8yhxdu.woff2?t=1630033759944") format("woff2"), url("//at.alicdn.com/t/font_1031158_u69w8yhxdu.woff?t=1630033759944") format("woff"), url("//at.alicdn.com/t/font_1031158_u69w8yhxdu.ttf?t=1630033759944") format("truetype"); }
</style></defs><path d="M640.3 500.3c14.8-5.8 20.3-8 35.1-13.8l52.3-212.2-19-56.9c-10.7-2.3-13.5-2.8-24.2-5.1l-0.2 0.2H359l-0.2-0.2c-0.4 0.1-0.7 0.2-1.1 0.2h-0.3v0.1c-9.5 2-12.6 2.7-22.8 4.8l-19 56.9 52.3 212.2c14.8 5.8 20.3 8 35.1 13.8l53.9-35.2 19.9 64.7-82 262.3 31.9 10 80.9-258.8h30.1l81 258.7 31.9-10-82-262.3 19.5-63.5 52.2 34.1z m47-241.5l5.6 16.8L647 461.7l-3 1.2-89.1-58.2 132.4-145.9zM521.6 391.6L453 316h137.3l-68.7 75.6zM654 245.9l-32.7 36v-2.6H419.7l-30.3-33.4H654z m-254.8 217l-3-1.2-45.9-186.1 5.6-16.8 132.4 145.8-89.1 58.3z m140.6 46.8h-34.2L486 446.1l35.6-23.3 37.4 24.4-19.2 62.5z" fill="#1E88E5" p-id="2004"></path><path d="M521.9 836.2c-162.5 0-294.8-132.2-294.8-294.8 0-57.8 16.7-113.8 48.4-161.9l27.9 18.4c-28.1 42.6-42.9 92.3-42.9 143.6 0 144.1 117.2 261.4 261.4 261.4s261.4-117.2 261.4-261.4c0-50.2-14.3-99-41.3-141.1l28.1-18.1c30.5 47.4 46.6 102.5 46.6 159.1-0.1 162.6-132.3 294.8-294.8 294.8z" fill="#1E88E5" p-id="2005"></path><path d="M693.1 591.6m-48.4 0a48.4 48.4 0 1 0 96.8 0 48.4 48.4 0 1 0-96.8 0Z" fill="#1E88E5" p-id="2006"></path></svg>