<?xml version="1.0" standalone="no"?><!DOCTYPE svg PUBLIC "-//W3C//DTD SVG 1.1//EN" "http://www.w3.org/Graphics/SVG/1.1/DTD/svg11.dtd"><svg t="1650454244542" class="icon" viewBox="0 0 1024 1024" version="1.1" xmlns="http://www.w3.org/2000/svg" p-id="4463" xmlns:xlink="http://www.w3.org/1999/xlink" width="200" height="200"><defs><style type="text/css">@font-face { font-family: feedback-iconfont; src: url("//at.alicdn.com/t/font_1031158_u69w8yhxdu.woff2?t=1630033759944") format("woff2"), url("//at.alicdn.com/t/font_1031158_u69w8yhxdu.woff?t=1630033759944") format("woff"), url("//at.alicdn.com/t/font_1031158_u69w8yhxdu.ttf?t=1630033759944") format("truetype"); }
</style></defs><path d="M655.75 707.44c-19.16-14.38-31.1-36.03-32.75-59.41-1.33-18.69 4.01-37.21 14.85-52.54H466.34c-46.86 0-84.98-38.12-84.98-84.98s38.12-84.98 84.98-84.98h176.21c-18.14-32.38-13.47-74.17 14-101.67 21.57-21.55 51.9-29 79.6-22.51v-66.97h-0.16c-1.65-56.89-48.18-102.53-105.47-102.53H259.04c-58.34 0-105.64 47.3-105.64 105.64v549c0 58.34 47.29 105.63 105.63 105.63h371.48c58.34 0 105.63-47.29 105.63-105.63v-65.65c-8.74 2.64-17.83 4.01-26.95 4.01-18.91 0.02-37.83-5.71-53.44-17.41z" fill="#1296db" p-id="4464"></path><path d="M862.3 529.59L732.85 659.04c-11.13 11.13-30.53 12.51-43.12 3.07-12.59-9.44-13.79-26.27-2.66-37.4l85.86-85.86h-306.6c-15.64 0-28.33-12.68-28.33-28.33 0-15.64 12.68-28.33 28.33-28.33h308.56l-1.2-1.15-77.06-77.06c-11.06-11.06-11.06-29 0-40.06 11.06-11.06 29-11.06 40.06 0L862.3 489.53c11.06 11.07 11.06 29 0 40.06z" fill="#1296db" p-id="4465"></path><path d="M736.69 363.92c-11.06-11.06-29-11.06-40.06 0-11.06 11.06-11.06 29 0 40.06l77.06 77.06 1.2 1.15H466.33c-15.64 0-28.33 12.68-28.33 28.33 0 15.64 12.68 28.33 28.33 28.33h306.59l-85.86 85.86c-11.13 11.13-9.93 27.96 2.66 37.4 12.59 9.44 31.99 8.06 43.12-3.07L862.3 529.59c11.06-11.06 11.06-29 0-40.06L736.69 363.92z" fill="#1296db" p-id="4466"></path></svg>