<?xml version="1.0" standalone="no"?><!DOCTYPE svg PUBLIC "-//W3C//DTD SVG 1.1//EN" "http://www.w3.org/Graphics/SVG/1.1/DTD/svg11.dtd"><svg t="1650281166618" class="icon" viewBox="0 0 1024 1024" version="1.1" xmlns="http://www.w3.org/2000/svg" p-id="3956" width="200" height="200" xmlns:xlink="http://www.w3.org/1999/xlink"><defs><style type="text/css">@font-face { font-family: feedback-iconfont; src: url("//at.alicdn.com/t/font_1031158_u69w8yhxdu.woff2?t=1630033759944") format("woff2"), url("//at.alicdn.com/t/font_1031158_u69w8yhxdu.woff?t=1630033759944") format("woff"), url("//at.alicdn.com/t/font_1031158_u69w8yhxdu.ttf?t=1630033759944") format("truetype"); }
</style></defs><path d="M679.271166 166.79584c7.78429 31.82073 8.56405 34.497699 7.832386 67.148329-0.291642 12.603039-7.444553 70.848605-5.498224 88.659249 1.606591 14.742772 5.256724 15.910365 10.994402 28.028357 9.979282 21.167089 6.621814 50.314942 2.824325 71.579245-2.142803 11.68104-6.567579 28.271904-13.284561 37.761022-7.442506 10.465352-22.284539 10.55745-28.854165 22.820752-9.44 17.613146-4.087085 42.334177-10.073426 61.312414-6.763031 21.60404-24.035416 23.116487-25.350364 51.336202 8.469905 1.215688 16.884552 2.484587 25.350364 3.650133 8.465812 18.295692 23.989367 54.986335 39.804565 65.983807 13.284561 3.696182 26.52205 7.349385 39.804565 10.996448 46.470381 19.364023 98.149391 42.431392 144.764058 62.334697 42.431392 18.147312 75.762521 24.572652 91.092671 69.635987 0 30.651091 2.874467 82.867336 2.094708 122.961496L63.910077 931.003979c-0.779759-40.09416 2.045589-92.310406 2.045589-122.961496 15.376199-45.063335 56.202023-51.487651 98.634438-69.635987 46.567595-19.903306 98.243535-42.970674 144.764058-62.334697 13.234419-3.647063 26.521027-7.300266 39.802518-10.996448 15.815197-10.997472 31.338752-47.689139 39.804565-65.983807l18.833951-4.623297c-4.284583-24.088628-19.030425-25.935696-25.159006-43.014676-2.385327-25.6461-4.768607-51.339272-7.203052-76.983325 0.097214 1.218758-17.321504-3.212158-19.611663-4.671393-24.570605-15.615653-25.056676-78.975702-27.490098-105.297185-1.070378-12.021801 15.474436-21.946848 10.899234-44.040029-26.957978-129.24255 11.630898-189.775204 72.6486-209.822796 42.335201-17.418718 121.410164-49.635467 195.130166-3.698229l18.293645 17.225313 29.638017 5.155417C669.778978 137.986701 679.271166 166.79584 679.271166 166.79584z" p-id="3957" fill="#1296db"></path></svg>