<?xml version="1.0" standalone="no"?><!DOCTYPE svg PUBLIC "-//W3C//DTD SVG 1.1//EN" "http://www.w3.org/Graphics/SVG/1.1/DTD/svg11.dtd"><svg t="1650369449004" class="icon" viewBox="0 0 1024 1024" version="1.1" xmlns="http://www.w3.org/2000/svg" p-id="5901" xmlns:xlink="http://www.w3.org/1999/xlink" width="200" height="200"><defs><style type="text/css">@font-face { font-family: feedback-iconfont; src: url("//at.alicdn.com/t/font_1031158_u69w8yhxdu.woff2?t=1630033759944") format("woff2"), url("//at.alicdn.com/t/font_1031158_u69w8yhxdu.woff?t=1630033759944") format("woff"), url("//at.alicdn.com/t/font_1031158_u69w8yhxdu.ttf?t=1630033759944") format("truetype"); }
</style></defs><path d="M748.5 597.4c40 0 80 13.5 111.2 36h4.4V103c0-27-17.8-45-44.5-45h-667c-26.7 0-44.5 18-44.5 45v764c0 27 17.8 45 44.5 45H584c-22.2-31.5-35.6-71.9-35.6-112.4 0-112.3 88.9-202.2 200.1-202.2zM253.9 240H716c0.2 0 0.4 0 0.6 0.1 0.6 0 1.3-0.1 1.9-0.1 15.7 0 28.5 12.7 28.5 28.5 0 15.7-12.7 28.5-28.5 28.5-0.6 0-1.3 0-1.9-0.1-0.2 0-0.4 0.1-0.6 0.1H253.9c-15.7 0-28.5-12.7-28.5-28.5s12.8-28.5 28.5-28.5z m0 210H716c0.2 0 0.4 0 0.6 0.1 0.6 0 1.3-0.1 1.9-0.1 15.7 0 28.5 12.7 28.5 28.5 0 15.7-12.7 28.5-28.5 28.5-0.6 0-1.3 0-1.9-0.1-0.2 0-0.4 0.1-0.6 0.1H253.9c-15.7 0-28.5-12.7-28.5-28.5s12.8-28.5 28.5-28.5z m202.6 289.4c-0.6 0-1.3 0-1.9-0.1-0.2 0-0.4 0.1-0.6 0.1H247.4c-15.7 0-28.5-12.7-28.5-28.5 0-15.7 12.7-28.5 28.5-28.5H454c0.2 0 0.4 0 0.6 0.1 0.6 0 1.3-0.1 1.9-0.1 15.7 0 28.5 12.7 28.5 28.5s-12.7 28.5-28.5 28.5z" fill="#1296db" p-id="5902"></path><path d="M757 646c-87.4 0-161 73.6-161 161s73.6 161 161 161 161-73.6 161-161-73.6-161-161-161z m92 184h-92c-9.2 0-18.4 0-18.4-4.6S734 811.6 734 807v-92c0-13.8 9.2-23 23-23s23 9.2 23 23v69h69c13.8 0 23 9.2 23 23s-9.2 23-23 23z" fill="#1296db" p-id="5903"></path></svg>