<svg viewBox="0 0 1000 1000" height="1000" width="1000" xmlns:xlink="http://www.w3.org/1999/xlink" xmlns="http://www.w3.org/2000/svg" id="您还没有相关的订单">
  <defs>
    <style>
      .cls-1, .cls-10, .cls-11, .cls-12, .cls-13, .cls-14, .cls-15, .cls-2, .cls-3, .cls-4, .cls-6, .cls-7, .cls-8 {
        fill-rule: evenodd;
      }

      .cls-1 {
        fill: url(#linear-gradient);
      }

      .cls-2 {
        fill: url(#linear-gradient-2);
      }

      .cls-3 {
        fill: url(#linear-gradient-3);
      }

      .cls-4 {
        fill: url(#linear-gradient-4);
      }

      .cls-5 {
        fill: #f9f2f1;
      }

      .cls-14, .cls-6 {
        fill: none;
      }

      .cls-6 {
        stroke: #f2e1de;
        stroke-width: 2px;
        stroke-dasharray: 8 4;
      }

      .cls-7 {
        fill: #ecd0ce;
      }

      .cls-8 {
        fill: url(#linear-gradient-5);
      }

      .cls-9 {
        fill: #f4e7e6;
      }

      .cls-10 {
        fill: #fff;
      }

      .cls-11 {
        fill: url(#linear-gradient-6);
      }

      .cls-12 {
        fill: #f3e2e2;
      }

      .cls-13 {
        fill: #e0c4c2;
      }

      .cls-14 {
        stroke: #ecd0ce;
        stroke-width: 3px;
      }

      .cls-15 {
        fill: url(#linear-gradient-7);
      }
    </style>
    <linearGradient gradientUnits="userSpaceOnUse" y2="580.5" x2="498.812" y1="866" x1="498.812" id="linear-gradient">
      <stop stop-color="#fff" offset="0"></stop>
      <stop stop-color="#fff" offset="0.01"></stop>
      <stop stop-color="#f9f3f2" offset="1"></stop>
    </linearGradient>
    <linearGradient gradientUnits="userSpaceOnUse" y2="488.844" x2="106.188" y1="567" x1="106.188" id="linear-gradient-2">
      <stop stop-color="#fff" offset="0"></stop>
      <stop stop-color="#f9f2f1" offset="1"></stop>
    </linearGradient>
    <linearGradient xlink:href="#linear-gradient-2" y2="202.875" x2="748.89" y1="316" x1="748.89" id="linear-gradient-3"></linearGradient>
    <linearGradient xlink:href="#linear-gradient-2" y2="554.5" x2="883.157" y1="611.031" x1="883.157" id="linear-gradient-4"></linearGradient>
    <linearGradient gradientUnits="userSpaceOnUse" y2="262.594" x2="486" y1="698.188" x1="486" id="linear-gradient-5">
      <stop stop-color="#ecd4d2" offset="0"></stop>
      <stop stop-color="#f3e3e1" offset="1"></stop>
    </linearGradient>
    <linearGradient gradientUnits="userSpaceOnUse" y2="574.406" x2="565.123" y1="668.125" x1="536.471" id="linear-gradient-6">
      <stop stop-color="#f4e7e6" offset="0"></stop>
      <stop stop-color="#ecd0ce" offset="1"></stop>
    </linearGradient>
    <linearGradient gradientUnits="userSpaceOnUse" y2="128.094" x2="298.828" y1="179.031" x1="298.828" id="linear-gradient-7">
      <stop stop-color="#f3e3e1" offset="0"></stop>
      <stop stop-color="#ecd0ce" offset="1"></stop>
    </linearGradient>
  </defs>
  <path d="M498.8,580.506c247.614,0,448.344,63.912,448.344,142.751S746.412,866.008,498.8,866.008,50.453,802.1,50.453,723.257,251.184,580.506,498.8,580.506Z" class="cls-1" id="椭圆_1"></path>
  <g id="组_15">
    <path d="M88,511s-36.385-5.24-37,27c-0.18,13.306,14.054,29,25,29h55c19.276,0,43.44-36.748,22-63S93.138,489.21,88,511Z" class="cls-2" id="形状_16"></path>
    <path d="M722.553,234.947S669.891,227.363,669,274.026C668.739,293.285,689.341,316,705.184,316H784.79c27.9,0,62.875-53.188,31.843-91.185S729.99,203.409,722.553,234.947Z" class="cls-3" id="形状_16_拷贝_2"></path>
    <path d="M870,570.539s-26.313-3.79-26.758,19.526c-0.13,9.622,10.163,20.972,18.079,20.972H901.1c13.94,0,31.415-26.575,15.91-45.561S873.718,554.781,870,570.539Z" class="cls-4" id="形状_16_拷贝"></path>
    <ellipse ry="17.469" rx="173.578" cy="753.282" cx="495.828" class="cls-5" id="椭圆_1-2"></ellipse>
  </g>
  <path d="M831.745,315.576s-71.26-49.079-171.186-34.645-69.29-34.645-69.29-34.645-58.23-114.992-244.552-85.593" class="cls-6" id="形状_3"></path>
  <path d="M343.144,246.281H654.231a20,20,0,0,1,20,20V678.187a20,20,0,0,1-20,20H343.144a20,20,0,0,1-20-20V266.281A20,20,0,0,1,343.144,246.281Z" class="cls-7" id="圆角矩形_1"></path>
  <path d="M341.434,262.589H630.56a20,20,0,0,1,20,20V678.2a20,20,0,0,1-20,20H341.434a20,20,0,0,1-20-20V282.589A20,20,0,0,1,341.434,262.589Z" class="cls-8" id="圆角矩形_1_拷贝"></path>
  <rect ry="4" rx="4" height="366.25" width="255.625" y="296.656" x="360.281" class="cls-9" id="圆角矩形_1_拷贝_2"></rect>
  <path d="M368.434,296.661H607.763a8.152,8.152,0,0,1,8.152,8.152s-8.343,161.7-8.343,267.542c0,57.671-116.162,91.707-116.162,91.707L242.783,633.493s61.9-14.809,81.517-73.366c27.567-82.3,35.982-255.314,35.982-255.314A8.152,8.152,0,0,1,368.434,296.661Z" class="cls-10" id="圆角矩形_1_拷贝_3"></path>
  <path d="M491.41,668.137s139.441-53.365,116.162-93.744c-39,40.845-81.93,28.716-85.593,26.493S522.617,648.464,491.41,668.137Z" class="cls-11" id="形状_2"></path>
  <path d="M409.893,370.6H564.776a3.435,3.435,0,0,1,3.477,4.076l-0.3,2.037a4.887,4.887,0,0,1-4.674,4.076H408.4a3.435,3.435,0,0,1-3.477-4.076l0.3-2.037A4.886,4.886,0,0,1,409.893,370.6Zm-5.983,40.758H558.793a3.435,3.435,0,0,1,3.477,4.076l-0.3,2.038a4.887,4.887,0,0,1-4.674,4.076H402.414a3.435,3.435,0,0,1-3.477-4.076l0.3-2.038A4.887,4.887,0,0,1,403.91,411.358Zm-5.983,40.759h94.254a3.437,3.437,0,0,1,3.478,4.076l-0.3,2.038a4.888,4.888,0,0,1-4.674,4.075H396.431a3.435,3.435,0,0,1-3.477-4.075l0.3-2.038A4.887,4.887,0,0,1,397.927,452.117Zm-5.983,40.758H546.827a3.435,3.435,0,0,1,3.477,4.076l-0.3,2.038a4.887,4.887,0,0,1-4.674,4.076H390.448a3.435,3.435,0,0,1-3.477-4.076l0.3-2.038A4.887,4.887,0,0,1,391.944,492.875Zm-6.581,44.835H540.245a3.437,3.437,0,0,1,3.478,4.076l-0.3,2.038a4.887,4.887,0,0,1-4.675,4.075H383.867a3.436,3.436,0,0,1-3.478-4.075l0.3-2.038A4.889,4.889,0,0,1,385.363,537.71Zm-5.983,40.758h94.254a3.435,3.435,0,0,1,3.477,4.076l-0.3,2.038a4.887,4.887,0,0,1-4.674,4.076H377.884a3.437,3.437,0,0,1-3.478-4.076l0.3-2.038A4.889,4.889,0,0,1,379.38,578.468ZM511.032,452.117a4.3,4.3,0,0,1,4.347,5.095,6.11,6.11,0,0,1-5.843,5.094,4.3,4.3,0,0,1-4.347-5.094A6.109,6.109,0,0,1,511.032,452.117ZM492.485,578.468a4.3,4.3,0,0,1,4.347,5.1,6.109,6.109,0,0,1-5.843,5.1,4.3,4.3,0,0,1-4.347-5.1A6.109,6.109,0,0,1,492.485,578.468Z" class="cls-12" id="椭圆_2_拷贝"></path>
  <path d="M436.386,262.589H537.327v41.46H436.386v-41.46Z" class="cls-7" id="矩形_1"></path>
  <path d="M444.937,246.286H542.9l-5.572,17H436.386Z" class="cls-13" id="矩形_1_拷贝"></path>
  <path d="M489.372,213.743a16.272,16.272,0,1,1-16.3,16.271A16.287,16.287,0,0,1,489.372,213.743Z" class="cls-14" id="椭圆_3"></path>
  <path d="M257.048,128.086l40.759,50.948,16.3-14.265,16.3,4.076-8.152-12.228-48.91-24.455,52.986,14.265,14.266-16.3Z" class="cls-15" id="形状_4"></path>
</svg>
